<?xml version="1.0" encoding="utf-8"?>
<!-- Generator: Adobe Illustrator 24.0.1, SVG Export Plug-In . SVG Version: 6.00 Build 0)  -->
<svg version="1.1" id="Layer_1" xmlns="http://www.w3.org/2000/svg" xmlns:xlink="http://www.w3.org/1999/xlink" x="0px" y="0px"
	 viewBox="0 0 158.2 158.2" style="enable-background:new 0 0 158.2 158.2;" xml:space="preserve">
<style type="text/css">
	.st0{fill:#FF3B61;}
</style>
<g>
	<path class="st0" d="M142.6,63.6c-8.6,0-15.6,7-15.6,15.6c0,11-5.6,22.8-15.3,32.6c-9.7,9.7-21.6,15.3-32.6,15.3l-63.6,0
		c-8.6,0-15.6,7-15.6,15.6c0,8.6,7,15.6,15.6,15.6l63.7,0c19.2,0,39.1-8.9,54.6-24.4c15.5-15.5,24.4-35.4,24.4-54.6
		C158.2,70.6,151.2,63.6,142.6,63.6 M15.6,94.6c8.6,0,15.6-7,15.6-15.6c0-11,5.6-22.9,15.3-32.6C56.1,36.7,68,31.2,79,31.2l63.6,0
		c8.6,0,15.6-7,15.6-15.6c0-8.6-7-15.6-15.6-15.6h0L79,0C59.8,0,39.9,8.9,24.4,24.4C8.9,39.9,0,59.8,0,79C0,87.6,7,94.6,15.6,94.6"
		/>
</g>
</svg>
