<svg xmlns="http://www.w3.org/2000/svg" viewBox="0 0 773.745 158.197"><path d="M189.067 76.996l10.526-15.035a31.163 31.163 0 0 0 21.552 8.62c3.81 0 7.417-1 7.417-3.609 0-6.415-37.29.101-37.29-26.263 0-11.326 9.423-22.152 27.767-22.152 10.926 0 20.75 3.107 28.368 9.322l-10.826 14.334c-5.814-4.41-13.332-6.616-19.647-6.616-4.01 0-5.112 1.304-5.112 3.007 0 6.315 37.19.903 37.19 25.761 0 14.736-10.927 23.258-28.87 23.258-14.235 0-23.957-4.21-31.075-10.627M304.641 53.04c0-9.322-6.315-16.74-16.039-16.74-9.722 0-16.038 7.418-16.038 16.74s6.316 16.74 16.038 16.74c9.724 0 16.04-7.418 16.04-16.74m-52.628 0c0-20.55 15.94-34.584 36.588-34.584 20.65 0 36.588 14.034 36.588 34.583 0 20.55-15.938 34.583-36.588 34.583-20.649 0-36.588-14.034-36.588-34.583M332.404 86.42V19.557h50.721v17.644h-30.472v6.616h29.771v17.641h-29.77v24.96zM406.079 86.42V37.201h-17.944V19.558h56.034v17.644h-17.841v49.217zM510.525 86.42V46.222L495.59 86.42h-9.021l-14.936-40.196V86.42h-20.248V19.558h27.967l11.728 32.077 11.728-32.077h27.968v66.861zM541.595 86.42V19.557h50.722v17.644h-30.472v6.616h29.77v17.641h-29.77v7.319h30.472v17.641zM647.347 52.939c0-9.022-5.212-15.738-16.039-15.738h-9.723v31.576h9.623c10.124 0 16.139-7.418 16.139-15.838m-46.01 33.48v-66.86h29.871c21.05 0 36.688 12.03 36.688 33.38 0 21.352-15.637 33.48-36.588 33.48zM675.11 19.558h20.249v66.861h-20.25zM736.355 39.406l-6.616 21.552h13.232zm14.434 47.014l-2.405-7.82h-24.057l-2.406 7.82h-22.956l24.659-66.862h25.461l24.66 66.862z" fill="#2d3135"/><text transform="matrix(1.33333 0 0 1.33333 185.177 140.255)" style="-inkscape-font-specification:Merriweather" fill="#ff3b61" font-family="Merriweather" font-size="28.07"><tspan y="0" x="0 10.470297 29.614378 41.432056 57.123466 69.783264 88.927345 104.61875 116.43643 123.59441 141.72795 154.38776 171.25812 182.73895 198.43036 212.80246 227.17456 236.52203 253.39241 272.5365 288.22791 297.79993"> Internet professionals </tspan></text><g><path d="M142.613 63.643c-8.576 0-15.553 6.993-15.553 15.586.001 10.982-5.568 22.85-15.28 32.558-9.71 9.708-21.58 15.276-32.564 15.276l-63.643.002c-8.584.002-15.57 6.99-15.57 15.576 0 8.578 6.983 15.556 15.566 15.556l63.65-.004c19.2 0 39.103-8.886 54.602-24.382 15.5-15.495 24.388-35.39 24.387-54.583 0-8.593-6.996-15.585-15.595-15.585M15.572 94.557c8.583 0 15.564-6.985 15.564-15.57 0-10.984 5.568-22.851 15.275-32.559 9.71-9.708 21.582-15.277 32.573-15.277l63.625-.006c8.6 0 15.596-6.992 15.596-15.586C158.204 6.98 151.21 0 142.611 0h-.003L78.983.001C59.78.003 39.88 8.891 24.384 24.385 8.885 39.883-.001 59.784 0 78.99c0 8.584 6.985 15.568 15.572 15.568" fill="#ff3b61"/></g></svg>